<?xml version="1.0" encoding="UTF-8" standalone="no"?>
<svg
   xmlns:dc="http://purl.org/dc/elements/1.1/"
   xmlns:cc="http://creativecommons.org/ns#"
   xmlns:rdf="http://www.w3.org/1999/02/22-rdf-syntax-ns#"
   xmlns:svg="http://www.w3.org/2000/svg"
   xmlns="http://www.w3.org/2000/svg"
   xmlns:sodipodi="http://sodipodi.sourceforge.net/DTD/sodipodi-0.dtd"
   xmlns:inkscape="http://www.inkscape.org/namespaces/inkscape"
   version="1.1"
   id="Layer_1"
   x="0px"
   y="0px"
   width="64px"
   height="64px"
   viewBox="0 0 64 64"
   enable-background="new 0 0 64 64"
   xml:space="preserve"
   inkscape:version="0.48.4 r9939"
   sodipodi:docname="mindmin-logo.svg"><metadata
     id="metadata15"><rdf:RDF><cc:Work
         rdf:about=""><dc:format>image/svg+xml</dc:format><dc:type
           rdf:resource="http://purl.org/dc/dcmitype/StillImage" /><dc:title></dc:title></cc:Work></rdf:RDF></metadata><defs
     id="defs13" /><sodipodi:namedview
     pagecolor="#ffffff"
     bordercolor="#666666"
     borderopacity="1"
     objecttolerance="10"
     gridtolerance="10"
     guidetolerance="10"
     inkscape:pageopacity="0"
     inkscape:pageshadow="2"
     inkscape:window-width="1600"
     inkscape:window-height="852"
     id="namedview11"
     showgrid="false"
     inkscape:snap-object-midpoints="true"
     inkscape:snap-page="false"
     inkscape:snap-bbox="false"
     inkscape:snap-grids="true"
     inkscape:snap-to-guides="true"
     inkscape:zoom="7.375"
     inkscape:cx="11.69015"
     inkscape:cy="27.918307"
     inkscape:window-x="0"
     inkscape:window-y="24"
     inkscape:window-maximized="1"
     inkscape:current-layer="Layer_1" /><style
     id="style3">.style0{fill:	#0074A2;}</style><g
     id="g3068"
     style="fill:#000080"
     transform="scale(2.5927726,2.5927726)" /><g
     id="g3070"
     style="fill:#000080"
     transform="scale(2.5927726,2.5927726)" /><g
     id="g3072"
     style="fill:#000080"
     transform="scale(2.5927726,2.5927726)" /><g
     id="g3074"
     style="fill:#000080"
     transform="scale(2.5927726,2.5927726)" /><g
     id="g3076"
     style="fill:#000080"
     transform="scale(2.5927726,2.5927726)" /><g
     id="g3078"
     style="fill:#000080"
     transform="scale(2.5927726,2.5927726)" /><g
     id="g3080"
     style="fill:#000080"
     transform="scale(2.5927726,2.5927726)" /><g
     id="g3082"
     style="fill:#000080"
     transform="scale(2.5927726,2.5927726)" /><g
     id="g3084"
     style="fill:#000080"
     transform="scale(2.5927726,2.5927726)" /><g
     id="g3086"
     style="fill:#000080"
     transform="scale(2.5927726,2.5927726)" /><g
     id="g3088"
     style="fill:#000080"
     transform="scale(2.5927726,2.5927726)" /><g
     id="g3090"
     style="fill:#000080"
     transform="scale(2.5927726,2.5927726)" /><g
     id="g3092"
     style="fill:#000080"
     transform="scale(2.5927726,2.5927726)" /><g
     id="g3094"
     style="fill:#000080"
     transform="scale(2.5927726,2.5927726)" /><g
     id="g3096"
     style="fill:#000080"
     transform="scale(2.5927726,2.5927726)" /><g
     style="fill:#1a1a1a"
     id="g3098"
     transform="scale(2.5927726,2.5927726)" /><g
     style="fill:#1a1a1a"
     id="g3100"
     transform="scale(2.5927726,2.5927726)" /><g
     style="fill:#1a1a1a"
     id="g3102"
     transform="scale(2.5927726,2.5927726)" /><g
     style="fill:#1a1a1a"
     id="g3104"
     transform="scale(2.5927726,2.5927726)" /><g
     style="fill:#1a1a1a"
     id="g3106"
     transform="scale(2.5927726,2.5927726)" /><g
     style="fill:#1a1a1a"
     id="g3108"
     transform="scale(2.5927726,2.5927726)" /><g
     style="fill:#1a1a1a"
     id="g3110"
     transform="scale(2.5927726,2.5927726)" /><g
     style="fill:#1a1a1a"
     id="g3112"
     transform="scale(2.5927726,2.5927726)" /><g
     style="fill:#1a1a1a"
     id="g3114"
     transform="scale(2.5927726,2.5927726)" /><g
     style="fill:#1a1a1a"
     id="g3116"
     transform="scale(2.5927726,2.5927726)" /><g
     style="fill:#1a1a1a"
     id="g3118"
     transform="scale(2.5927726,2.5927726)" /><g
     style="fill:#1a1a1a"
     id="g3120"
     transform="scale(2.5927726,2.5927726)" /><g
     style="fill:#1a1a1a"
     id="g3122"
     transform="scale(2.5927726,2.5927726)" /><g
     style="fill:#1a1a1a"
     id="g3124"
     transform="scale(2.5927726,2.5927726)" /><g
     style="fill:#1a1a1a"
     id="g3126"
     transform="scale(2.5927726,2.5927726)" /><g
     style="fill:#ff0000"
     id="g3295"
     transform="matrix(0.12729795,0,0,0.12729795,101.8824,-11.610168)" /><g
     style="fill:#ff0000"
     id="g3297"
     transform="matrix(0.12729795,0,0,0.12729795,101.8824,-11.610168)" /><g
     style="fill:#ff0000"
     id="g3299"
     transform="matrix(0.12729795,0,0,0.12729795,101.8824,-11.610168)" /><g
     style="fill:#ff0000"
     id="g3301"
     transform="matrix(0.12729795,0,0,0.12729795,101.8824,-11.610168)" /><g
     style="fill:#ff0000"
     id="g3303"
     transform="matrix(0.12729795,0,0,0.12729795,101.8824,-11.610168)" /><g
     style="fill:#ff0000"
     id="g3305"
     transform="matrix(0.12729795,0,0,0.12729795,101.8824,-11.610168)" /><g
     style="fill:#ff0000"
     id="g3307"
     transform="matrix(0.12729795,0,0,0.12729795,101.8824,-11.610168)" /><g
     style="fill:#ff0000"
     id="g3309"
     transform="matrix(0.12729795,0,0,0.12729795,101.8824,-11.610168)" /><g
     style="fill:#ff0000"
     id="g3311"
     transform="matrix(0.12729795,0,0,0.12729795,101.8824,-11.610168)" /><g
     style="fill:#ff0000"
     id="g3313"
     transform="matrix(0.12729795,0,0,0.12729795,101.8824,-11.610168)" /><g
     style="fill:#ff0000"
     id="g3315"
     transform="matrix(0.12729795,0,0,0.12729795,101.8824,-11.610168)" /><g
     style="fill:#ff0000"
     id="g3317"
     transform="matrix(0.12729795,0,0,0.12729795,101.8824,-11.610168)" /><g
     style="fill:#ff0000"
     id="g3319"
     transform="matrix(0.12729795,0,0,0.12729795,101.8824,-11.610168)" /><g
     style="fill:#ff0000"
     id="g3321"
     transform="matrix(0.12729795,0,0,0.12729795,101.8824,-11.610168)" /><g
     style="fill:#ff0000"
     id="g3323"
     transform="matrix(0.12729795,0,0,0.12729795,101.8824,-11.610168)" /><path
     style="font-size:medium;font-style:normal;font-variant:normal;font-weight:normal;font-stretch:normal;text-indent:0;text-align:start;text-decoration:none;line-height:normal;letter-spacing:normal;word-spacing:normal;text-transform:none;direction:ltr;block-progression:tb;writing-mode:lr-tb;text-anchor:start;baseline-shift:baseline;color:#000000;fill:#f9f9f9;fill-opacity:1;fill-rule:nonzero;stroke:none;stroke-width:5.48571443999999975;marker:none;visibility:visible;display:inline;overflow:visible;enable-background:accumulate;font-family:Sans;-inkscape-font-specification:Sans"
     d="M 2.46875,0 A 2.7431315,2.7431315 0 0 0 0,2.75 l 0,58.5 A 2.7431315,2.7431315 0 0 0 2.75,64 l 58.5,0 A 2.7431315,2.7431315 0 0 0 64,61.25 L 64,2.75 A 2.7431315,2.7431315 0 0 0 61.25,0 L 2.75,0 A 2.7431315,2.7431315 0 0 0 2.46875,0 z M 5.5,5.5 l 53,0 0,53 -53,0 0,-53 z"
     id="rect3403"
     inkscape:connector-curvature="0" /><g
     style="font-size:68.58673859000001016px;font-style:normal;font-variant:normal;font-weight:bold;font-stretch:normal;text-align:start;line-height:125%;letter-spacing:0px;word-spacing:0px;writing-mode:lr-tb;text-anchor:start;fill:#f9f9f9;fill-opacity:1;stroke:#f9f9f9;stroke-opacity:1;font-family:Sawasdee;-inkscape-font-specification:Sawasdee Bold"
     id="text3405"
     transform="matrix(0.85623537,0,0,0.96375736,4.3780706,1.5868991)"><path
       style="fill:#f9f9f9;stroke:#f9f9f9;stroke-opacity:1"
       d="m 8.7499863,56.521446 c -1.7191337,0 -3.4382675,0 -5.1574012,0 C 7.0308527,39.709658 10.46912,22.897869 13.907388,6.0860808 20.013662,18.655851 26.119935,31.225621 32.226209,43.795391 38.444115,31.225621 44.66202,18.655851 50.879926,6.0860808 54.228888,22.897869 57.57785,39.709658 60.926812,56.521446 c -1.797276,0 -3.594553,0 -5.391829,0 C 53.280015,45.626157 51.025048,34.730868 48.77008,23.835579 43.19964,34.898316 37.629201,45.961054 32.058761,57.023791 26.633443,45.961054 21.208124,34.898316 15.782806,23.835579 13.438533,34.730868 11.09426,45.626157 8.7499863,56.521446 z"
       id="path3410"
       inkscape:connector-curvature="0" /></g><path
     sodipodi:type="star"
     style="fill:#f9f9f9;fill-opacity:1;stroke:#f9f9f9;stroke-width:6;stroke-linejoin:miter;stroke-miterlimit:4;stroke-opacity:1;stroke-dasharray:none"
     id="path4204"
     sodipodi:sides="3"
     sodipodi:cx="-37.966103"
     sodipodi:cy="16.271187"
     sodipodi:r1="5.0334134"
     sodipodi:r2="2.5167067"
     sodipodi:arg1="1.0951011"
     sodipodi:arg2="2.1422987"
     inkscape:flatsided="false"
     inkscape:rounded="0"
     inkscape:randomized="0"
     d="m -35.661018,20.745763 -3.666362,-2.357801 -3.666362,-2.357801 3.875097,-1.996262 3.875097,-1.996262 -0.208735,4.354063 z"
     inkscape:transform-center-x="-1.3992737"
     inkscape:transform-center-y="1.5563815"
     transform="matrix(0.8900649,0.45583383,-0.45583383,0.8900649,72.954331,18.006206)" /></svg>